<svg xmlns="http://www.w3.org/2000/svg" width="30" height="30" viewBox="0 0 30 30"><g fill="none" fill-rule="evenodd"><rect width="30" height="30" fill="#AF8BF5" rx="15"/><g fill="#FFF" fill-rule="nonzero"><path d="M21.93 13.94a.68.68 0 1 0-1.36 0c0 3-2.44 5.44-5.44 5.44a5.446 5.446 0 0 1-5.44-5.44.68.68 0 1 0-1.36 0c0 3.519 2.689 6.423 6.12 6.766V22.1h-2.72a.68.68 0 1 0 0 1.36h6.8a.68.68 0 1 0 0-1.36h-2.72v-1.394c3.431-.343 6.12-3.247 6.12-6.766z"/><path d="M17.17 13.26V11.9h2.04v-.68c0-2.25-1.83-4.08-4.08-4.08a4.084 4.084 0 0 0-4.08 4.08v.68h2.04v1.36h-2.04v.68c0 2.25 1.83 4.08 4.08 4.08s4.08-1.83 4.08-4.08v-.68h-2.04z"/></g></g></svg>