<svg xmlns="http://www.w3.org/2000/svg" xmlns:xlink="http://www.w3.org/1999/xlink" width="30" height="30" viewBox="0 0 30 30"><defs><path id="a" d="M0 0h10v15.556H0z"/></defs><g fill="none" fill-rule="evenodd"><rect width="30" height="30" fill="#39BEFA" rx="15"/><g transform="translate(10 7.4)"><mask id="b" fill="#fff"><use xlink:href="#a"/></mask><path fill="#FFF" d="M7.532 7.669c-.037.2-.147.327-.294.436a1.987 1.987 0 0 1-.442.218c-.295.109-.627.218-.958.327-.332.127-.663.236-.958.327-.35.127-.7.236-.994.345-.24.11-.46.237-.682.4a2.308 2.308 0 0 0-.478.6c-.148.254-.221.545-.221.909 0 .726.184 1.272.534 1.635.35.345 1.013.545 1.97.545.976 0 1.64-.2 2.008-.563.35-.382.534-.909.534-1.6l-.019-3.58zM5.01 0c1.713 0 2.984.327 3.794 1C9.595 1.671 10 2.507 10 3.506v8.541c0 .346-.074.727-.203 1.145a2.6 2.6 0 0 1-.736 1.145c-.369.345-.884.636-1.529.872-.644.237-1.491.346-2.523.346-1.05 0-1.878-.128-2.523-.346-.644-.218-1.16-.527-1.528-.872-.369-.345-.627-.727-.737-1.145-.129-.418-.203-.8-.203-1.145v-1.363c0-.727.203-1.399.571-1.999.387-.6.921-1.035 1.62-1.272.35-.127.738-.236 1.198-.4.442-.163.884-.29 1.308-.454.423-.145.773-.272 1.105-.381.313-.128.515-.182.589-.218.074-.037.184-.091.294-.164.13-.073.24-.182.369-.29.129-.146.22-.292.294-.455.093-.182.13-.382.13-.618V3.89c0-.2-.037-.382-.13-.6-.073-.218-.22-.381-.405-.563-.184-.182-.46-.31-.773-.418-.313-.11-.718-.164-1.216-.164-.976 0-1.62.2-1.989.6a2.14 2.14 0 0 0-.515 1.254c0 .109-.092.182-.203.182H.203A.203.203 0 0 1 0 3.98v-.51c0-.49.092-.944.276-1.362.184-.418.48-.8.903-1.127.405-.309.92-.581 1.565-.745A11.238 11.238 0 0 1 5.009 0z" mask="url(#b)"/></g></g></svg>