<svg xmlns="http://www.w3.org/2000/svg" width="45" height="45"><g fill="none" fill-rule="evenodd"><path fill="#2879E4" d="M22.5 0C34.927 0 45 10.074 45 22.5 45 34.927 34.927 45 22.5 45 10.074 45 0 34.927 0 22.5 0 10.074 10.074 0 22.5 0"/><path fill="#FFF" d="M33.9 21.5V18.9h-2V21.5h-2.7v2h2.7V26.1h2V23.5h2.6v-2z"/><path fill="#FFF" d="M31.9 32h-19V13h19v3.1h2V11h-23v23h23v-5.1h-2z"/><path fill="#FFF" d="M24.047 22.474a.448.448 0 0 1-.206.31c-.11.068-.213.116-.31.143-.205.07-.43.147-.67.237-.24.09-.462.168-.67.237a18.56 18.56 0 0 0-.7.247 1.947 1.947 0 0 0-.474.288 1.83 1.83 0 0 0-.34.423c-.103.172-.154.39-.154.65 0 .522.123.91.37 1.164.248.255.708.382 1.382.382.687 0 1.154-.134 1.4-.403.249-.267.372-.649.372-1.143v-2.535zm-1.772-5.462c1.209 0 2.095.236 2.659.711.563.474.844 1.068.844 1.782V25.606c0 .247-.044.52-.133.815-.09.295-.265.566-.526.813-.261.248-.618.454-1.072.62-.453.163-1.044.246-1.772.246-.73 0-1.32-.083-1.773-.247-.454-.165-.811-.37-1.072-.619a1.871 1.871 0 0 1-.526-.813 2.85 2.85 0 0 1-.133-.815v-.968c0-.523.133-.997.4-1.422.27-.426.65-.728 1.146-.907.247-.083.528-.179.845-.289l.917-.319c.295-.103.553-.196.773-.279a5.04 5.04 0 0 1 .412-.143c.054-.028.127-.066.217-.115a.925.925 0 0 0 .257-.215c.082-.096.155-.206.216-.33a.943.943 0 0 0 .093-.433v-.392c0-.137-.027-.278-.082-.423a1.046 1.046 0 0 0-.29-.4 1.508 1.508 0 0 0-.545-.3 2.76 2.76 0 0 0-.855-.114c-.687 0-1.151.142-1.392.423-.24.282-.36.622-.36 1.02H18.77v-.495c0-.343.065-.666.195-.968.13-.302.34-.567.629-.793.289-.228.653-.406 1.093-.537.439-.13.968-.195 1.587-.195z"/></g></svg>